<svg preserveAspectRatio="none" width="100%" height="100%" overflow="visible" style="display: block;" viewBox="0 0 46.9918 59.3222" fill="none" xmlns="http://www.w3.org/2000/svg">
<g id="&#208;&#186;&#209;&#128;&#209;&#131;&#208;&#179; &#208;&#187;&#208;&#190;&#208;&#179;&#208;&#190;">
<path id="Vector" d="M43.8853 12.2986C41.8336 8.47916 38.9705 5.48856 35.3366 3.29197C31.6911 1.09539 27.7558 0 23.5075 0C19.2708 0 15.3239 1.09539 11.6784 3.29197C8.0155 5.48856 5.1698 8.48496 3.10072 12.2986C1.03744 16.1006 0 20.2329 0 24.6782C0 29.0714 1.00847 33.1516 3.01959 36.942C4.13237 39.0343 5.48857 40.9005 7.12297 42.5349H13.6606C10.612 40.6629 8.24734 38.1302 6.54919 34.9541C4.86263 31.749 4.01066 28.3238 4.01066 24.6667C4.01066 21.0559 4.83365 17.6712 6.50862 14.5067C8.1662 11.3538 10.5367 8.8327 13.5968 6.93749C16.6454 5.05388 19.9489 4.10338 23.5075 4.10338C26.9849 4.10338 30.2422 5.0307 33.2617 6.86215C36.2929 8.7052 38.6634 11.2032 40.4021 14.3792C42.1292 17.5437 42.9928 20.9806 42.9928 24.6667C42.9928 28.3933 42.1176 31.8418 40.3789 35.0352C38.6518 38.1881 36.3103 40.6977 33.3197 42.5407H39.8805C41.5265 40.8947 42.9 38.9995 44.0128 36.8783C46.0008 33.0879 46.9918 29.0193 46.9918 24.6782C46.986 20.2329 45.9486 16.1064 43.8853 12.2986Z" fill="var(--fill-0, #4666A9)"/>
<path id="Vector_2" d="M7.10547 50.9315V47.5178H39.8862V50.9315H7.10547Z" fill="var(--fill-0, #4666A9)"/>
<path id="Vector_3" d="M13.6836 59.3222V55.9085H33.308V59.3222H13.6836Z" fill="var(--fill-0, #4666A9)"/>
</g>
</svg>
