<svg preserveAspectRatio="none" width="100%" height="100%" overflow="visible" style="display: block;" viewBox="0 0 31.7861 14.7279" fill="none" xmlns="http://www.w3.org/2000/svg">
<path id="Arrow 8" d="M1 6.36396C0.447715 6.36396 0 6.81168 0 7.36396C0 7.91625 0.447715 8.36396 1 8.36396V7.36396V6.36396ZM31.4932 8.07107C31.8837 7.68054 31.8837 7.04738 31.4932 6.65685L25.1293 0.292893C24.7387 -0.097631 24.1056 -0.097631 23.715 0.292893C23.3245 0.683418 23.3245 1.31658 23.715 1.70711L29.3719 7.36396L23.715 13.0208C23.3245 13.4113 23.3245 14.0445 23.715 14.435C24.1056 14.8256 24.7387 14.8256 25.1293 14.435L31.4932 8.07107ZM1 7.36396V8.36396H30.7861V7.36396V6.36396H1V7.36396Z" fill="var(--stroke-0, white)"/>
</svg>
