<svg preserveAspectRatio="none" width="100%" height="100%" overflow="visible" style="display: block;" viewBox="0 0 31.6978 14.7279" fill="none" xmlns="http://www.w3.org/2000/svg">
<path id="Arrow 8" d="M1 6.36396C0.447715 6.36396 0 6.81168 0 7.36396C0 7.91625 0.447715 8.36396 1 8.36396V7.36396V6.36396ZM31.4049 8.07107C31.7954 7.68054 31.7954 7.04738 31.4049 6.65685L25.0409 0.292893C24.6504 -0.097631 24.0172 -0.097631 23.6267 0.292893C23.2362 0.683418 23.2362 1.31658 23.6267 1.70711L29.2836 7.36396L23.6267 13.0208C23.2362 13.4113 23.2362 14.0445 23.6267 14.435C24.0172 14.8256 24.6504 14.8256 25.0409 14.435L31.4049 8.07107ZM1 7.36396V8.36396H30.6978V7.36396V6.36396H1V7.36396Z" fill="var(--stroke-0, white)"/>
</svg>
