<svg preserveAspectRatio="none" width="100%" height="100%" overflow="visible" style="display: block;" viewBox="0 0 24.7 12.5187" fill="none" xmlns="http://www.w3.org/2000/svg">
<path id="Arrow 1" d="M0.85 5.40937C0.380558 5.40937 0 5.78992 0 6.25937C0 6.72881 0.380558 7.10937 0.85 7.10937V6.25937V5.40937ZM24.451 6.86041C24.783 6.52846 24.783 5.99027 24.451 5.65833L19.0417 0.248959C18.7097 -0.0829864 18.1715 -0.0829864 17.8396 0.248959C17.5076 0.580905 17.5076 1.11909 17.8396 1.45104L22.6479 6.25937L17.8396 11.0677C17.5076 11.3996 17.5076 11.9378 17.8396 12.2698C18.1715 12.6017 18.7097 12.6017 19.0417 12.2698L24.451 6.86041ZM0.85 6.25937V7.10937H23.85V6.25937V5.40937H0.85V6.25937Z" fill="var(--stroke-0, white)"/>
</svg>
