<svg preserveAspectRatio="none" width="100%" height="100%" overflow="visible" style="display: block;" viewBox="0 0 248.268 50.4405" fill="none" xmlns="http://www.w3.org/2000/svg">
<g id="Group">
<g id="Group_2">
<path id="Vector" d="M1.06359 27.605V27.7086C1.51878 32.6706 6.22834 36.4202 12.1051 36.4202C18.6399 36.4202 22.1822 33.7838 22.1822 28.9255C22.1822 24.8739 18.8382 21.9851 10.5323 19.0512C4.86279 16.9691 1.87481 13.4267 1.87481 8.71718C1.87481 3.90397 6.38157 0.510384 12.7631 0.510384C18.2839 0.510384 22.1822 3.04318 24.1066 7.75274L23.0926 8.31158C21.4206 4.0572 17.8783 1.77678 12.7631 1.77678C7.80119 1.77678 4.70956 3.95354 4.70956 7.39671C4.70956 10.7407 7.19278 13.2735 12.5108 15.3511C18.8923 17.6811 25.5263 20.2635 25.5263 27.6095C25.5263 33.5359 19.9559 37.6866 12.1051 37.6866C6.7376 37.6866 0.707561 34.5454 0 27.9115L1.06359 27.605Z" fill="var(--fill-0, #4666A9)"/>
<path id="Vector_2" d="M26.8373 37.2311L41.7772 5.98123L40.308 2.53807C40.1547 2.33526 40.2088 1.92965 40.5108 1.83051C41.9304 1.32124 42.7371 0.766911 43.0931 0.108925C43.2959 -0.0443047 43.4492 -0.0443035 43.652 0.163007L59.2499 37.2356H54.9955L50.1823 25.8921H33.5208L28.0992 37.2356H26.8373V37.2311ZM34.1337 24.6167H49.682L42.3405 7.34677L34.1337 24.6167Z" fill="var(--fill-0, #4666A9)"/>
<path id="Vector_3" d="M62.5897 37.177V0.965264H64.6673L90.3964 30.7955V0.965264H91.46V36.7714C91.46 37.3798 90.9056 37.5827 90.5 37.0779L63.7074 5.93171V37.1815H62.5897V37.177Z" fill="var(--fill-0, #4666A9)"/>
<path id="Vector_4" d="M96.2151 2.23166V0.965264H123.715V2.23166H112.169V37.2266H108.171V2.23166H96.2151Z" fill="var(--fill-0, #4666A9)"/>
<path id="Vector_5" d="M164.362 37.2311V0.965264H174.997C184.619 0.965264 189.18 3.80001 189.18 9.87963C189.18 14.49 185.633 17.6267 179.657 18.6903L189.131 37.2266H184.52L175.556 19.0464H168.309L168.359 37.2266H164.362V37.2311ZM168.309 17.78H175.651C181.271 17.78 184.615 14.792 184.615 9.87963C184.615 4.6608 181.627 2.23166 175.142 2.23166H168.607C168.404 3.24568 168.3 5.31879 168.3 7.85159V17.78H168.309Z" fill="var(--fill-0, #4666A9)"/>
<path id="Vector_6" d="M195.404 37.2311V0.965264H199.402V37.2266H195.404V37.2311Z" fill="var(--fill-0, #4666A9)"/>
<path id="Vector_7" d="M207.401 37.177V0.965264H209.479L235.208 30.7955V0.965264H236.271V36.7714C236.271 37.3798 235.717 37.5827 235.311 37.0779L208.519 5.93171V37.1815H207.401V37.177Z" fill="var(--fill-0, #4666A9)"/>
<path id="Vector_8" d="M244.266 37.2311V0.965264H248.268V37.2266H244.266V37.2311Z" fill="var(--fill-0, #4666A9)"/>
</g>
<path id="Vector_9" d="M154.675 13.7147C153.08 10.7447 150.854 8.41923 148.028 6.71117C145.193 5.00311 142.133 4.15134 138.83 4.15134C135.535 4.15134 132.466 5.00311 129.631 6.71117C126.783 8.41923 124.57 10.7492 122.961 13.7147C121.357 16.6711 120.55 19.8844 120.55 23.3411C120.55 26.7572 121.334 29.93 122.898 32.8774C123.764 34.5043 124.818 35.9555 126.089 37.2264H131.173C128.802 35.7707 126.963 33.8013 125.643 31.3316C124.331 28.8393 123.669 26.1758 123.669 23.3321C123.669 20.5244 124.309 17.8924 125.611 15.4317C126.9 12.9801 128.743 11.0196 131.123 9.54592C133.494 8.08122 136.062 7.34212 138.83 7.34212C141.534 7.34212 144.066 8.0632 146.414 9.48733C148.771 10.9205 150.615 12.8629 151.967 15.3326C153.31 17.7933 153.981 20.4658 153.981 23.3321C153.981 26.2299 153.301 28.9114 151.949 31.3947C150.606 33.8463 148.785 35.7978 146.46 37.2309H151.561C152.841 35.951 153.909 34.4773 154.774 32.8278C156.32 29.8804 157.091 26.7167 157.091 23.3411C157.086 19.8844 156.28 16.6756 154.675 13.7147Z" fill="var(--fill-0, #FFE700)"/>
<path id="Vector_10" d="M126.076 44.5366V41.8821H151.567V44.5366H126.076Z" fill="var(--fill-0, #FFE700)"/>
<path id="Vector_11" d="M131.192 50.4405V47.786H146.452V50.4405H131.192Z" fill="var(--fill-0, #FFE700)"/>
</g>
</svg>
