<svg preserveAspectRatio="none" width="100%" height="100%" overflow="visible" style="display: block;" viewBox="0 0 153.518 31.1902" fill="none" xmlns="http://www.w3.org/2000/svg">
<g id="Group">
<g id="Group_2">
<path id="Vector" d="M0.657681 17.0695V17.1336C0.939146 20.2019 3.85133 22.5205 7.4853 22.5205C11.5261 22.5205 13.7165 20.8902 13.7165 17.8861C13.7165 15.3808 11.6487 13.5944 6.51271 11.7802C3.00694 10.4927 1.1593 8.30233 1.1593 5.39015C1.1593 2.41386 3.94608 0.315417 7.89217 0.315417C11.306 0.315417 13.7165 1.88159 14.9065 4.79378L14.2795 5.13934C13.2456 2.50861 11.0552 1.0985 7.89217 1.0985C4.82392 1.0985 2.91219 2.44452 2.91219 4.57362C2.91219 6.64141 4.4477 8.20758 7.73611 9.49229C11.6822 10.9331 15.7843 12.5299 15.7843 17.0723C15.7843 20.737 12.3399 23.3036 7.4853 23.3036C4.16624 23.3036 0.437525 21.3612 0 17.2591L0.657681 17.0695Z" fill="var(--fill-0, #4666A9)"/>
<path id="Vector_2" d="M16.5952 23.0221L25.8334 3.69856L24.9249 1.56946C24.8302 1.44405 24.8636 1.19324 25.0503 1.13193C25.9282 0.817027 26.427 0.474253 26.6472 0.0673826C26.7726 -0.0273679 26.8673 -0.0273672 26.9927 0.100825L36.6378 23.0249H34.0071L31.0308 16.0106H20.728L17.3755 23.0249H16.5952V23.0221ZM21.107 15.2219H30.7214L26.1818 4.54296L21.107 15.2219Z" fill="var(--fill-0, #4666A9)"/>
<path id="Vector_3" d="M38.7027 22.9887V0.596892H39.9874L55.8972 19.0426V0.596892H56.5548V22.7379C56.5548 23.1141 56.2121 23.2395 55.9613 22.9274L39.3938 3.66793V22.9915H38.7027V22.9887Z" fill="var(--fill-0, #4666A9)"/>
<path id="Vector_4" d="M59.4951 1.37998V0.596892H76.5001V1.37998H69.3603V23.0193H66.8884V1.37998H59.4951Z" fill="var(--fill-0, #4666A9)"/>
<path id="Vector_5" d="M101.634 23.0221V0.596892H108.211C114.161 0.596892 116.981 2.34978 116.981 6.10915C116.981 8.96002 114.788 10.8996 111.093 11.5573L116.95 23.0193H114.1L108.557 11.7775H104.075L104.106 23.0193H101.634V23.0221ZM104.075 10.9944H108.615C112.09 10.9944 114.158 9.14674 114.158 6.10915C114.158 2.88205 112.31 1.37998 108.3 1.37998H104.259C104.134 2.007 104.07 3.28892 104.07 4.8551V10.9944H104.075Z" fill="var(--fill-0, #4666A9)"/>
<path id="Vector_6" d="M120.83 23.0221V0.596892H123.302V23.0193H120.83V23.0221Z" fill="var(--fill-0, #4666A9)"/>
<path id="Vector_7" d="M128.248 22.9887V0.596892H129.532L145.442 19.0426V0.596892H146.1V22.7379C146.1 23.1141 145.757 23.2395 145.506 22.9274L128.939 3.66793V22.9915H128.248V22.9887Z" fill="var(--fill-0, #4666A9)"/>
<path id="Vector_8" d="M151.043 23.0221V0.596893H153.518V23.0193H151.043V23.0221Z" fill="var(--fill-0, #4666A9)"/>
</g>
<path id="Vector_9" d="M95.6447 8.48069C94.6582 6.6442 93.2815 5.20622 91.5342 4.15003C89.7813 3.09384 87.8891 2.56714 85.8464 2.56714C83.8092 2.56714 81.9114 3.09384 80.1586 4.15003C78.3973 5.20622 77.029 6.64698 76.0341 8.48069C75.042 10.3088 74.5432 12.2958 74.5432 14.4333C74.5432 16.5456 75.0281 18.5075 75.9951 20.3301C76.5302 21.3361 77.1823 22.2335 77.9681 23.0193H81.1116C79.6458 22.1192 78.5088 20.9014 77.6923 19.3742C76.8813 17.8331 76.4716 16.1861 76.4716 14.4277C76.4716 12.6915 76.8674 11.064 77.6727 9.54245C78.4698 8.02644 79.6096 6.81419 81.081 5.90291C82.5468 4.99721 84.1353 4.54018 85.8464 4.54018C87.5184 4.54018 89.0846 4.98606 90.5365 5.86669C91.994 6.75288 93.1338 7.95399 93.9699 9.48114C94.8003 11.0027 95.2155 12.6553 95.2155 14.4277C95.2155 16.2196 94.7947 17.8777 93.9587 19.4132C93.1282 20.9292 92.0024 22.1359 90.5644 23.0221H93.719C94.5105 22.2307 95.1709 21.3194 95.706 20.2994C96.6619 18.4769 97.1384 16.5206 97.1384 14.4333C97.1356 12.2958 96.6368 10.3116 95.6447 8.48069Z" fill="var(--fill-0, #FFE700)"/>
<path id="Vector_10" d="M77.9598 27.5395V25.8981H93.7218V27.5395H77.9598Z" fill="var(--fill-0, #FFE700)"/>
<path id="Vector_11" d="M81.1231 31.1902V29.5488H90.5591V31.1902H81.1231Z" fill="var(--fill-0, #FFE700)"/>
</g>
</svg>
