<svg preserveAspectRatio="none" width="100%" height="100%" overflow="visible" style="display: block;" viewBox="0 0 23.9763 19" fill="none" xmlns="http://www.w3.org/2000/svg">
<g id="Icon">
<path fill-rule="evenodd" clip-rule="evenodd" d="M3.49646 5.5C3.49646 2.46245 5.95885 0 8.99638 0C12.0339 0 14.4963 2.46245 14.4963 5.5C14.4963 7.38949 13.5435 9.05645 12.0922 10.0466C15.4567 11.2791 17.8802 14.463 17.9922 18.2277C18.0046 18.6417 17.6789 18.9873 17.2649 18.9997C16.8509 19.012 16.5052 18.6863 16.4929 18.2723C16.3728 14.2357 13.0623 11 8.99629 11C4.93031 11 1.61981 14.2357 1.49967 18.2723C1.48735 18.6863 1.14172 19.012 0.727695 18.9997C0.313664 18.9873 -0.0119841 18.6417 0.000338491 18.2277C0.112387 14.4629 2.53597 11.2791 5.90053 10.0466C4.44922 9.0564 3.49646 7.38946 3.49646 5.5ZM8.99638 1.5C6.7873 1.5 4.99646 3.29085 4.99646 5.5C4.99646 7.70915 6.7873 9.5 8.99638 9.5C11.2055 9.5 12.9963 7.70915 12.9963 5.5C12.9963 3.29085 11.2055 1.5 8.99638 1.5Z" fill="#4567AA"/>
<path d="M17.2864 5.5C17.1387 5.5 16.9939 5.51051 16.8526 5.53072C16.4426 5.58936 16.0626 5.3045 16.004 4.89446C15.9453 4.48442 16.2302 4.10447 16.6402 4.04583C16.8517 4.01559 17.0674 4 17.2864 4C19.7882 4 21.8163 6.02816 21.8163 8.53C21.8163 10.0058 21.1105 11.3159 20.02 12.1424C22.3514 13.1875 23.9763 15.5282 23.9763 18.25C23.9763 18.6642 23.6405 19 23.2263 19C22.8121 19 22.4763 18.6642 22.4763 18.25C22.4763 15.9041 20.9194 13.9199 18.7807 13.2782L18.2463 13.1178V11.4418L18.6566 11.2334C19.6431 10.7321 20.3163 9.70904 20.3163 8.53C20.3163 6.85657 18.9597 5.5 17.2864 5.5Z" fill="#4567AA"/>
</g>
</svg>
