<svg preserveAspectRatio="none" width="100%" height="100%" overflow="visible" style="display: block;" viewBox="0 0 27.9724 22.1667" fill="none" xmlns="http://www.w3.org/2000/svg">
<g id="Icon">
<path fill-rule="evenodd" clip-rule="evenodd" d="M4.0792 6.41667C4.0792 2.87285 6.95199 0 10.4958 0C14.0396 0 16.9124 2.87285 16.9124 6.41667C16.9124 8.62107 15.8008 10.5659 14.1075 11.721C18.0328 13.159 20.8602 16.8735 20.9909 21.2656C21.0053 21.7487 20.6254 22.1519 20.1424 22.1663C19.6593 22.1807 19.2561 21.8007 19.2417 21.3177C19.1016 16.6084 15.2393 12.8333 10.4957 12.8333C5.75203 12.8333 1.88978 16.6084 1.74962 21.3177C1.73524 21.8007 1.33201 22.1807 0.848977 22.1663C0.365942 22.1519 -0.0139814 21.7487 0.000394906 21.2656C0.131118 16.8734 2.95863 13.1589 6.88395 11.721C5.19076 10.5658 4.0792 8.62104 4.0792 6.41667ZM10.4958 1.75C7.91851 1.75 5.8292 3.83932 5.8292 6.41667C5.8292 8.99401 7.91851 11.0833 10.4958 11.0833C13.073 11.0833 15.1624 8.99401 15.1624 6.41667C15.1624 3.83932 13.073 1.75 10.4958 1.75Z" fill="#333333"/>
<path d="M20.1674 6.41667C19.9951 6.41667 19.8262 6.42893 19.6614 6.4525C19.183 6.52092 18.7397 6.18859 18.6713 5.71021C18.6029 5.23182 18.9352 4.78855 19.4136 4.72013C19.6603 4.68486 19.912 4.66667 20.1674 4.66667C23.0862 4.66667 25.4524 7.03285 25.4524 9.95167C25.4524 11.6735 24.6289 13.2019 23.3566 14.1661C26.0767 15.3854 27.9724 18.1162 27.9724 21.2917C27.9724 21.7749 27.5806 22.1667 27.0974 22.1667C26.6141 22.1667 26.2224 21.7749 26.2224 21.2917C26.2224 18.5548 24.4059 16.2399 21.9109 15.4912L21.2874 15.3041V13.3488L21.766 13.1056C22.9169 12.5208 23.7024 11.3272 23.7024 9.95167C23.7024 7.99933 22.1197 6.41667 20.1674 6.41667Z" fill="#333333"/>
</g>
</svg>
