<svg preserveAspectRatio="none" width="100%" height="100%" overflow="visible" style="display: block;" viewBox="0 0 24.5 26.25" fill="none" xmlns="http://www.w3.org/2000/svg">
<path id="Icon" fill-rule="evenodd" clip-rule="evenodd" d="M6.125 0C6.60825 0 7 0.391751 7 0.875V3.5H17.5V0.875C17.5 0.391751 17.8918 0 18.375 0C18.8582 0 19.25 0.391751 19.25 0.875V3.5H22.4583C23.5859 3.5 24.5 4.41409 24.5 5.54167V24.2083C24.5 25.3359 23.5859 26.25 22.4583 26.25H2.04167C0.914085 26.25 0 25.3359 0 24.2083V5.54167C0 4.41409 0.914085 3.5 2.04167 3.5H5.25V0.875C5.25 0.391751 5.64175 0 6.125 0ZM2.04167 5.25C1.88058 5.25 1.75 5.38058 1.75 5.54167V9.33333H22.75V5.54167C22.75 5.38058 22.6194 5.25 22.4583 5.25H2.04167ZM22.75 11.0833H1.75V24.2083C1.75 24.3694 1.88058 24.5 2.04167 24.5H22.4583C22.6194 24.5 22.75 24.3694 22.75 24.2083V11.0833Z" fill="var(--fill-0, #333333)"/>
</svg>
