<svg preserveAspectRatio="none" width="100%" height="100%" overflow="visible" style="display: block;" viewBox="0 0 25.625 25.625" fill="none" xmlns="http://www.w3.org/2000/svg">
<path id="Icon" fill-rule="evenodd" clip-rule="evenodd" d="M10.3125 0C4.61706 0 0 4.61706 0 10.3125C0 16.0079 4.61706 20.625 10.3125 20.625C12.8227 20.625 15.1233 19.7282 16.9116 18.2374L24.0246 25.3504C24.3907 25.7165 24.9843 25.7165 25.3504 25.3504C25.7165 24.9843 25.7165 24.3907 25.3504 24.0246L18.2374 16.9116C19.7282 15.1233 20.625 12.8227 20.625 10.3125C20.625 4.61706 16.0079 0 10.3125 0ZM1.875 10.3125C1.875 5.6526 5.6526 1.875 10.3125 1.875C14.9724 1.875 18.75 5.6526 18.75 10.3125C18.75 14.9724 14.9724 18.75 10.3125 18.75C5.6526 18.75 1.875 14.9724 1.875 10.3125Z" fill="var(--fill-0, white)"/>
</svg>
