<svg preserveAspectRatio="none" width="100%" height="100%" overflow="visible" style="display: block;" viewBox="0 0 21.4887 21.5282" fill="none" xmlns="http://www.w3.org/2000/svg">
<path id="Vector" d="M20.6881 15.7201V18.7201C20.6892 18.9986 20.6322 19.2743 20.5206 19.5294C20.4091 19.7846 20.2454 20.0137 20.0402 20.202C19.835 20.3902 19.5927 20.5336 19.3289 20.6228C19.065 20.712 18.7855 20.7452 18.5081 20.7201C15.431 20.3857 12.4751 19.3342 9.87812 17.6501C7.46194 16.1148 5.41345 14.0663 3.87812 11.6501C2.18809 9.0413 1.13636 6.07109 0.808117 2.9801C0.783127 2.70356 0.815992 2.42486 0.904617 2.16172C0.993243 1.89859 1.13569 1.65679 1.32288 1.45172C1.51008 1.24665 1.73792 1.08281 1.99191 0.970619C2.24589 0.858432 2.52046 0.800359 2.79812 0.800097H5.79812C6.28342 0.795321 6.75391 0.967176 7.12188 1.28363C7.48985 1.60008 7.73019 2.03954 7.79812 2.5201C7.92474 3.48016 8.15957 4.42282 8.49812 5.3301C8.63266 5.68802 8.66178 6.07701 8.58202 6.45098C8.50227 6.82494 8.31698 7.16821 8.04812 7.4401L6.77812 8.7101C8.20167 11.2136 10.2746 13.2865 12.7781 14.7101L14.0481 13.4401C14.32 13.1712 14.6633 12.9859 15.0372 12.9062C15.4112 12.8264 15.8002 12.8556 16.1581 12.9901C17.0654 13.3286 18.0081 13.5635 18.9681 13.6901C19.4539 13.7586 19.8975 14.0033 20.2147 14.3776C20.5318 14.7519 20.7003 15.2297 20.6881 15.7201Z" stroke="var(--stroke-0, #4567AA)" stroke-width="1.6" stroke-linecap="round" stroke-linejoin="round"/>
</svg>
