<svg preserveAspectRatio="none" width="100%" height="100%" overflow="visible" style="display: block;" viewBox="0 0 45 30.6" fill="none" xmlns="http://www.w3.org/2000/svg">
<g id="Vector">
<path d="M18 21.8602V8.73984L29.7 15.3L18 21.8602Z" fill="white"/>
<path d="M44.0506 4.77735C43.7946 3.85317 43.2931 3.01053 42.5965 2.33377C41.8999 1.65702 41.0325 1.16988 40.0812 0.921123C36.5778 2.14577e-07 22.5 0 22.5 0C22.5 0 8.42218 2.14577e-07 4.9188 0.921123C3.96749 1.16988 3.10012 1.65702 2.40349 2.33377C1.70687 3.01053 1.20544 3.85317 0.949372 4.77735C0.295213 8.24837 -0.0222328 11.7714 0.00120921 15.3C-0.0222328 18.8286 0.295213 22.3516 0.949372 25.8227C1.20544 26.7468 1.70687 27.5895 2.40349 28.2662C3.10012 28.943 3.96749 29.4301 4.9188 29.6789C8.42218 30.6 22.5 30.6 22.5 30.6C22.5 30.6 36.5778 30.6 40.0812 29.6789C41.0325 29.4301 41.8999 28.943 42.5965 28.2662C43.2931 27.5895 43.7946 26.7468 44.0506 25.8227C44.7048 22.3516 45.0222 18.8286 44.9988 15.3C45.0222 11.7714 44.7048 8.24837 44.0506 4.77735ZM18.0002 21.8571V8.74286L29.6835 15.3L18.0002 21.8571Z" fill="#4567AA"/>
</g>
</svg>
