<svg width="154" height="32" viewBox="0 0 154 32" fill="none" xmlns="http://www.w3.org/2000/svg">
<path d="M0.657681 17.0696V17.1337C0.939146 20.2019 3.85133 22.5205 7.4853 22.5205C11.5261 22.5205 13.7165 20.8902 13.7165 17.8861C13.7165 15.3808 11.6487 13.5944 6.51271 11.7803C3.00694 10.4928 1.1593 8.30235 1.1593 5.39016C1.1593 2.41388 3.94608 0.31543 7.89217 0.31543C11.306 0.31543 13.7165 1.8816 14.9065 4.79379L14.2795 5.13935C13.2456 2.50863 11.0552 1.09851 7.89217 1.09851C4.82392 1.09851 2.91219 2.44453 2.91219 4.57363C2.91219 6.64142 4.4477 8.2076 7.73611 9.4923C11.6822 10.9331 15.7843 12.5299 15.7843 17.0723C15.7843 20.737 12.3399 23.3036 7.4853 23.3036C4.16624 23.3036 0.437525 21.3612 0 17.2591L0.657681 17.0696Z" fill="#4666A9"/>
<path d="M16.5952 23.0221L25.8334 3.69856L24.9249 1.56946C24.8302 1.44406 24.8636 1.19324 25.0503 1.13194C25.9281 0.817029 26.427 0.474255 26.6471 0.067385C26.7725 -0.0273656 26.8673 -0.0273648 26.9927 0.100827L36.6378 23.0249H34.007L31.0307 16.0106H20.728L17.3755 23.0249H16.5952V23.0221ZM21.107 15.2219H30.7214L26.1817 4.54296L21.107 15.2219Z" fill="#4666A9"/>
<path d="M38.7026 22.9887V0.596893H39.9873L55.8971 19.0426V0.596893H56.5548V22.7379C56.5548 23.1141 56.212 23.2395 55.9612 22.9274L39.3938 3.66793V22.9915H38.7026V22.9887Z" fill="#4666A9"/>
<path d="M59.4951 1.37998V0.596893H76.5001V1.37998H69.3603V23.0193H66.8884V1.37998H59.4951Z" fill="#4666A9"/>
<path d="M101.634 23.0221V0.596893H108.211C114.161 0.596893 116.981 2.34978 116.981 6.10915C116.981 8.96002 114.788 10.8996 111.093 11.5573L116.95 23.0193H114.1L108.557 11.7775H104.075L104.106 23.0193H101.634V23.0221ZM104.075 10.9944H108.615C112.09 10.9944 114.158 9.14674 114.158 6.10915C114.158 2.88205 112.31 1.37998 108.3 1.37998H104.259C104.134 2.00701 104.07 3.28892 104.07 4.8551V10.9944H104.075Z" fill="#4666A9"/>
<path d="M120.83 23.0221V0.596893H123.302V23.0193H120.83V23.0221Z" fill="#4666A9"/>
<path d="M128.248 22.9887V0.596893H129.532L145.442 19.0426V0.596893H146.1V22.7379C146.1 23.1141 145.757 23.2395 145.506 22.9274L128.939 3.66793V22.9915H128.248V22.9887Z" fill="#4666A9"/>
<path d="M151.043 23.0221V0.596893H153.518V23.0193H151.043V23.0221Z" fill="#4666A9"/>
<path d="M95.6445 8.48069C94.658 6.6442 93.2813 5.20622 91.534 4.15003C89.7811 3.09384 87.8889 2.56714 85.8462 2.56714C83.809 2.56714 81.9112 3.09384 80.1583 4.15003C78.3971 5.20622 77.0288 6.64699 76.0339 8.48069C75.0418 10.3088 74.543 12.2958 74.543 14.4333C74.543 16.5456 75.0279 18.5075 75.9949 20.3301C76.53 21.3361 77.1821 22.2335 77.9679 23.0193H81.1114C79.6456 22.1192 78.5086 20.9014 77.692 19.3742C76.8811 17.8331 76.4714 16.1861 76.4714 14.4277C76.4714 12.6915 76.8671 11.064 77.6725 9.54245C78.4695 8.02644 79.6093 6.81419 81.0808 5.90292C82.5466 4.99721 84.1351 4.54018 85.8462 4.54018C87.5182 4.54018 89.0844 4.98606 90.5363 5.86669C91.9938 6.75288 93.1336 7.95399 93.9696 9.48114C94.8001 11.0027 95.2153 12.6553 95.2153 14.4277C95.2153 16.2196 94.7945 17.8777 93.9585 19.4132C93.128 20.9292 92.0022 22.1359 90.5642 23.0221H93.7188C94.5103 22.2307 95.1707 21.3194 95.7058 20.2994C96.6617 18.4769 97.1382 16.5206 97.1382 14.4333C97.1354 12.2958 96.6366 10.3116 95.6445 8.48069Z" fill="#FFE700"/>
<path d="M77.96 27.5395V25.898H93.722V27.5395H77.96Z" fill="#FFE700"/>
<path d="M81.123 31.1902V29.5488H90.5591V31.1902H81.123Z" fill="#FFE700"/>
</svg>
