<svg width="18" height="18" viewBox="0 0 18 18" fill="none" xmlns="http://www.w3.org/2000/svg">
<path d="M0.249057 16.5124C-0.0828888 16.8444 -0.0828888 17.3826 0.249057 17.7145C0.581003 18.0465 1.11919 18.0465 1.45114 17.7145L0.850098 17.1135L0.249057 16.5124ZM17.9636 0.850009C17.9636 0.380566 17.583 8.10977e-06 17.1136 9.28988e-06L9.46355 8.91056e-06C8.99411 8.91056e-06 8.61355 0.380567 8.61355 0.850009C8.61355 1.31945 8.99411 1.70001 9.46355 1.70001L16.2636 1.70001L16.2636 8.50001C16.2636 8.96945 16.6441 9.35001 17.1136 9.35001C17.583 9.35001 17.9636 8.96945 17.9636 8.50001L17.9636 0.850009ZM0.850098 17.1135L1.45114 17.7145L17.7146 1.45105L17.1136 0.850009L16.5125 0.248968L0.249057 16.5124L0.850098 17.1135Z" fill="white"/>
</svg>
